Coordinates
version=1
nRows=29
nColumns=24
inDegrees=yes

Units are S.I. units (second, meters, Newtons, ...)
Angles are in degrees.

endheader
time	pelvis_tilt	pelvis_list	pelvis_rotation	pelvis_tx	pelvis_ty	pelvis_tz	hip_flexion_r	hip_adduction_r	hip_rotation_r	knee_angle_r	ankle_angle_r	subtalar_angle_r	mtp_angle_r	hip_flexion_l	hip_adduction_l	hip_rotation_l	knee_angle_l	ankle_angle_l	subtalar_angle_l	mtp_angle_l	lumbar_extension	lumbar_bending	lumbar_rotation
      3.84500000	    -14.01763248	    -10.25878197	      7.09968605	      1.41701982	     -0.01515434	     -0.47413348	     23.58215165	     11.07398242	     -7.19640292	    -10.95025297	     -6.26538236	     -3.89641322	      4.97501846	     18.64398655	    -17.10472788	     -8.85003763	    -59.79008082	    -27.43781565	     12.46076081	     24.77510306	     15.01889960	      9.38551805	     -6.71480697
      3.85000000	    -14.02598973	     -9.97917725	      6.74544540	      1.42278010	     -0.01433479	     -0.47335536	     22.93652626	     11.06213176	     -6.67659655	    -10.53291988	     -6.18256139	     -3.94091817	      5.12577314	     19.19712937	    -16.80491317	     -8.86787441	    -60.19929715	    -26.65243221	     12.33128420	     25.02188345	     14.95383393	      9.16986350	     -6.27909885
      3.85500000	    -13.97706655	     -9.71576304	      6.39211643	      1.42852053	     -0.01349303	     -0.47256051	     22.22209428	     11.07277329	     -6.12743608	    -10.09293072	     -6.12088190	     -4.04131837	      5.19410372	     19.68329018	    -16.53822912	     -8.90251581	    -60.55391259	    -25.87873413	     12.26704183	     25.27215496	     14.83286641	      8.97836238	     -5.85122980
      3.86000000	    -13.92149162	     -9.44428467	      6.03792474	      1.43421272	     -0.01267235	     -0.47175649	     21.50325920	     11.06413940	     -5.59598274	     -9.65478205	     -6.04816528	     -4.11220499	      5.22180699	     20.15750601	    -16.26275267	     -8.94394447	    -60.85349706	    -25.12713199	     12.24107572	     25.51561131	     14.70158039	      8.77667608	     -5.41684004
      3.86500000	    -13.86503926	     -9.16705014	      5.66971675	      1.43987212	     -0.01188162	     -0.47092870	     20.78641224	     11.04219463	     -5.07869203	     -9.21966505	     -5.97046221	     -4.14528341	      5.23909129	     20.61962573	    -15.98741317	     -9.01032485	    -61.09952255	    -24.38923996	     12.24075297	     25.74156803	     14.56826709	      8.57132182	     -4.96864805
      3.87000000	    -13.79523130	     -8.89437889	      5.28880433	      1.44547703	     -0.01111639	     -0.47009540	     20.06054466	     11.01745082	     -4.56021991	     -8.78571789	     -5.90263668	     -4.15957934	      5.26674903	     21.06259241	    -15.72479970	     -9.10081498	    -61.30119204	    -23.65769983	     12.24283400	     25.93085998	     14.41676553	      8.37897657	     -4.51617135
      3.87500000	    -13.73598426	     -8.60979732	      4.89923172	      1.45112753	     -0.01039637	     -0.46923031	     19.34190188	     10.97017066	     -4.08181126	     -8.34883922	     -5.81339526	     -4.12364112	      5.33292599	     21.49583330	    -15.45678901	     -9.21987743	    -61.44040932	    -22.93442416	     12.25431178	     26.09494468	     14.29098288	      8.16696973	     -4.05898782
      3.88000000	    -13.69832571	     -8.30370695	      4.50622441	      1.45669497	     -0.00972213	     -0.46837218	     18.66529226	     10.88131368	     -3.64709775	     -7.93630082	     -5.71485265	     -4.01629395	      5.43346223	     21.94778994	    -15.15889025	     -9.34310857	    -61.52792259	    -22.22362268	     12.26666448	     26.25425611	     14.18070538	      7.93047889	     -3.60010555
      3.88500000	    -13.67442061	     -7.99260196	      4.11357398	      1.46230241	     -0.00911915	     -0.46749435	     18.00610057	     10.77572425	     -3.23811268	     -7.53047700	     -5.57726221	     -3.87974645	      5.55640987	     22.40362874	    -14.86215223	     -9.48673526	    -61.56319724	    -21.52604137	     12.25593445	     26.39828794	     14.10244031	      7.67923372	     -3.16128977
      3.89000000	    -13.60623369	     -7.69441028	      3.68239001	      1.46775330	     -0.00849483	     -0.46660182	     17.32169259	     10.68511825	     -2.79315243	     -7.13927963	     -5.51168557	     -3.74818766	      5.74438545	     22.80680890	    -14.59829491	     -9.67578237	    -61.56444177	    -20.80665286	     12.18758306	     26.46034836	     13.94947056	      7.46718250	     -2.66145435
      3.89500000	    -13.57099150	     -7.37326893	      3.26858885	      1.47326798	     -0.00795563	     -0.46570164	     16.68002854	     10.55394826	     -2.38877850	     -6.76784535	     -5.39004666	     -3.61220968	      5.93724963	     23.23498761	    -14.30517029	     -9.86510561	    -61.50853880	    -20.09772230	     12.10346513	     26.51987121	     13.85518066	      7.20980261	     -2.19378793
      3.90000000	    -13.53624112	     -7.06173479	      2.84830198	      1.47876499	     -0.00746995	     -0.46478515	     16.05084273	     10.42466838	     -1.97272979	     -6.41068638	     -5.25508969	     -3.47274778	      6.13604406	     23.66057118	    -14.03158032	    -10.07278470	    -61.41191288	    -19.39219485	     11.95985157	     26.53895664	     13.76483322	      6.96348577	     -1.73669430
      3.90500000	    -13.43967945	     -6.77302527	      2.40515255	      1.48416085	     -0.00695782	     -0.46388112	     15.36831122	     10.31776652	     -1.50841252	     -6.05181972	     -5.20352512	     -3.40101596	      6.44605281	     24.01666259	    -13.79871420	    -10.31489396	    -61.28995457	    -18.64250482	     11.75393377	     26.40880279	     13.59392201	      6.75781772	     -1.23591620
      3.91000000	    -13.40597942	     -6.45478044	      1.97720745	      1.48954585	     -0.00655306	     -0.46297376	     14.78214315	     10.16198608	     -1.07361237	     -5.74672119	     -5.08412548	     -3.31111257	      6.68164746	     24.43657167	    -13.52122270	    -10.54045713	    -61.11234218	    -17.90937934	     11.52215164	     26.31402274	     13.50221831	      6.50337428	     -0.77887940
      3.91500000	    -13.36955623	     -6.14037311	      1.54885925	      1.49485914	     -0.00618633	     -0.46207549	     14.21777558	     10.00094508	     -0.62378145	     -5.47552452	     -4.95413595	     -3.23712199	      6.85790692	     24.85525964	    -13.24803531	    -10.76674626	    -60.89650072	    -17.18394810	     11.22835242	     26.17217058	     13.40197989	      6.25211084	     -0.31131900
      3.92000000	    -13.34364841	     -5.81669829	      1.12768878	      1.50014681	     -0.00586864	     -0.46118692	     13.68857439	      9.81959323	     -0.17105869	     -5.24295238	     -4.79638234	     -3.17889886	      6.98098701	     25.27970541	    -12.96287043	    -10.99374882	    -60.63255768	    -16.47206727	     10.89067749	     26.00209752	     13.31765256	      5.98452340	      0.13165958
      3.92500000	    -13.32271606	     -5.49585728	      0.70892683	      1.50547332	     -0.00561395	     -0.46030297	     13.17196124	      9.63196035	      0.30229050	     -5.02400659	     -4.59637653	     -3.12805821	      7.07573881	     25.70150110	    -12.69017852	    -11.23907579	    -60.32856162	    -15.79318188	     10.50623859	     25.79015816	     13.25534207	      5.72049585	      0.55180656
      3.93000000	    -13.28707649	     -5.18705324	      0.27449452	      1.51070720	     -0.00537797	     -0.45941709	     12.66955387	      9.45280817	      0.79584115	     -4.84439829	     -4.41269406	     -3.09271196	      7.14739996	     26.10477980	    -12.43883707	    -11.50031188	    -59.99188245	    -15.12219448	     10.06508016	     25.50401730	     13.16619498	      5.46936646	      0.99561972
      3.93500000	    -13.18593766	     -4.91999386	     -0.17508647	      1.51589268	     -0.00511555	     -0.45851701	     12.10351198	      9.31763278	      1.35383901	     -4.66510853	     -4.28237951	     -3.15870812	      7.18076843	     26.43254298	    -12.25015217	    -11.77637053	    -59.64139285	    -14.38626365	      9.67621203	     24.99619499	     13.00040569	      5.26784194	      1.44663034
      3.94000000	    -13.16578956	     -4.61749426	     -0.58581080	      1.52104525	     -0.00497421	     -0.45770455	     11.66245101	      9.11936005	      1.83270411	     -4.54632685	     -4.05929208	     -3.12115997	      7.21412040	     26.85735858	    -11.99333389	    -12.00807220	    -59.23414144	    -13.78582357	      9.18241211	     24.64806169	     12.93091056	      5.01914394	      1.87586136
      3.94500000	    -13.12107700	     -4.33253695	     -1.00600836	      1.52618061	     -0.00484103	     -0.45687459	     11.20488266	      8.93698548	      2.32544971	     -4.43833747	     -3.84381508	     -3.10049443	      7.22640255	     27.24361794	    -11.76997442	    -12.26278968	    -58.79051028	    -13.18290244	      8.69151661	     24.23886996	     12.83678222	      4.78495122	      2.29080181
      3.95000000	    -13.07799172	     -4.04663944	     -1.41565037	      1.53130158	     -0.00473747	     -0.45606755	     10.76129166	      8.74344553	      2.80939899	     -4.34408752	     -3.61606615	     -3.07928321	      7.22983952	     27.62658427	    -11.54467356	    -12.51647704	    -58.30697222	    -12.60727436	      8.20288544	     23.81462686	     12.74958216	      4.54600160	      2.67768257
      3.95500000	    -13.02988192	     -3.76635451	     -1.82319775	      1.53635637	     -0.00464017	     -0.45530282	     10.33276875	      8.54558425	      3.28663680	     -4.27271587	     -3.40176365	     -3.04872734	      7.22497877	     27.99963953	    -11.32001278	    -12.76095655	    -57.78252264	    -12.04425581	      7.72154857	     23.37636241	     12.64913288	      4.31455713	      3.05078032
      3.96000000	    -12.98244387	     -3.49269201	     -2.21418046	      1.54140467	     -0.00458675	     -0.45456036	      9.91133982	      8.34499831	      3.74165908	     -4.20583939	     -3.15867189	     -3.00981472	      7.23106507	     28.37455311	    -11.10076408	    -12.99912768	    -57.22694618	    -11.51963557	      7.24135855	     22.94980392	     12.55673271	      4.08232049	      3.42974258
      3.96500000	    -12.92908430	     -3.22128662	     -2.60063305	      1.54642664	     -0.00453498	     -0.45385548	      9.49325694	      8.13694883	      4.18550978	     -4.14551693	     -2.92720784	     -2.95900310	      7.23756214	     28.73345259	    -10.88162695	    -13.23826191	    -56.62814043	    -11.00212351	      6.79461725	     22.52068051	     12.45779728	      3.85263107	      3.77506542
      3.97000000	    -12.82470553	     -2.95186481	     -2.96781930	      1.55146937	     -0.00445931	     -0.45316357	      9.01546305	      7.92040534	      4.63589944	     -4.07425891	     -2.68899274	     -2.94695775	      7.20049696	     29.02615398	    -10.66233077	    -13.47697025	    -56.00112306	    -10.43229468	      6.48537402	     21.96344962	     12.31141713	      3.61121543	      4.09131534
      3.97500000	    -12.80161220	     -2.69597402	     -3.33276898	      1.55643400	     -0.00448745	     -0.45253048	      8.65587849	      7.71211733	      5.01427281	     -4.03988544	     -2.44444703	     -2.85173237	      7.23336636	     29.41644654	    -10.45342323	    -13.70703549	    -55.33096753	    -10.00799660	      6.01773608	     21.63161979	     12.24776951	      3.39160197	      4.41456144
      3.98000000	    -12.76329677	     -2.42219805	     -3.66595749	      1.56142548	     -0.00453004	     -0.45190178	      8.27929349	      7.47649287	      5.36930577	     -3.99779729	     -2.18131633	     -2.78217525	      7.26966012	     29.78086742	    -10.21972996	    -13.93142284	    -54.61965175	     -9.58626058	      5.65436223	     21.30949313	     12.17621284	      3.13546047	      4.69343684
      3.98500000	    -12.64911717	     -2.18249550	     -4.04169220	      1.56634672	     -0.00447687	     -0.45132011	      7.82658732	      7.26611298	      5.77525784	     -3.95833719	     -1.96779635	     -2.68572283	      7.27934785	     30.04345922	    -10.03302315	    -14.19361688	    -53.88172436	     -9.15360266	      5.31431010	     20.85332774	     12.00957027	      2.93604637	      5.01492793
